<?xml version="1.0" encoding="UTF-8"?>
<svg id="Layer_2" data-name="Layer 2" xmlns="http://www.w3.org/2000/svg" viewBox="0 0 893.43 739.68">
  <defs>
    <style>
      .cls-1 {
        fill: #df4039;
      }

      .cls-2 {
        fill: #264797;
      }

      .cls-2, .cls-3 {
        stroke-width: 0px;
      }

      .cls-3 {
        fill: #d7564b;
      }
    </style>
  </defs>
  <g id="Layer_1-2" data-name="Layer 1">
    <g>
      <path class="cls-3" d="m647.14,146.79l-53.28,159.19c174.02,17.95,298.82,66.76,298.82,124.17v-165.87c0-51.36-99.89-95.84-245.55-117.5Z"/>
      <path class="cls-3" d="m402.73,133.38C176.68,139.84,0,195.97,0,264.29v165.87c0-62.51,147.96-114.83,346.31-128.21l56.42-168.56Z"/>
      <path class="cls-1" d="m.74,264.29v164.8c0,72.65,199.83,131.53,446.35,131.53s446.35-58.88,446.35-131.53v-164.8c0,72.65-199.83,131.53-446.35,131.53-246.52,0-446.35-58.88-446.35-131.53"/>
      <path class="cls-2" d="m345.72,379.89c9.11.63,18.3,1.17,27.57,1.62.47.02.94.04,1.41.07,4.01.19,8.04.37,12.08.53.82.03,1.64.07,2.47.1,8.95.34,17.97.61,27.04.79,1.11.02,2.22.04,3.33.06,3.43.06,6.87.11,10.32.15,1.25.01,2.5.03,3.75.04,4.46.04,8.92.06,13.4.06s8.68-.02,13.01-.06c1.24-.01,2.48-.03,3.71-.04,3.25-.04,6.49-.08,9.73-.14,1.19-.02,2.38-.04,3.57-.06,4.01-.08,8.01-.17,12-.28.26,0,.52-.01.78-.02,4.58-.13,9.14-.28,13.69-.45.26,0,.51-.02.77-.03,4.21-.16,8.41-.34,12.6-.53.52-.02,1.04-.05,1.56-.07,13.61-.65,27.07-1.48,40.33-2.49,0,0,0,0,0,0L685.72,0h-227.8l-126.8,378.82c4.45.35,8.93.68,13.42,1,.39.03.78.05,1.17.08Z"/>
      <path class="cls-2" d="m471.24,572.92c-.17,0-.34,0-.52,0-3.48.05-6.96.09-10.45.12-.48,0-.97.01-1.45.02-3.9.03-7.82.05-11.74.05s-7.64-.01-11.44-.04c-1.05,0-2.09-.02-3.14-.03-2.76-.03-5.53-.05-8.28-.09-1.16-.02-2.31-.04-3.46-.06-2.65-.04-5.29-.09-7.93-.15-1.11-.02-2.21-.06-3.32-.08-2.69-.07-5.38-.13-8.06-.21-.99-.03-1.98-.07-2.98-.1-2.79-.09-5.58-.18-8.36-.28-.89-.03-1.77-.07-2.65-.11-2.89-.11-5.77-.23-8.65-.36-.75-.03-1.5-.07-2.25-.11-3.01-.14-6.01-.28-9-.44-.63-.03-1.26-.07-1.89-.1-3.11-.17-6.21-.34-9.31-.53-.51-.03-1.02-.06-1.54-.1-3.21-.2-6.41-.4-9.6-.62-.4-.03-.79-.06-1.19-.08-3.3-.23-6.59-.46-9.87-.71-.3-.02-.59-.05-.89-.07-3.38-.26-6.74-.53-10.1-.81-.2-.02-.4-.03-.6-.05-3.45-.29-6.88-.59-10.3-.91-.12-.01-.24-.02-.36-.03-3.49-.32-6.97-.66-10.44-1.01-.06,0-.11-.01-.17-.02-3.52-.35-7.03-.72-10.52-1.1,0,0-.02,0-.03,0-7.05-.77-14.04-1.59-20.95-2.46l-59.35,177.19-.03.03h227.8l56.05-167.29s0,0,0,0c-7.65.23-15.34.41-23.06.53Z"/>
    </g>
  </g>
</svg>